# Blender v2.78 (sub 0) OBJ File: 'Goal.blend'
# www.blender.org
v -0.911231 0.002820 -21.643564
v 0.000001 1.372911 -26.527973
v 0.000002 0.002820 -21.698124
v 1.114076 1.372911 -26.461533
v -1.114076 1.372911 -26.461527
v 0.911232 0.002820 -21.643564
v 1.653575 1.100730 -26.132738
v -0.557204 1.372911 -26.506979
v 0.557205 1.372911 -26.506983
v -1.504673 0.211780 -23.779367
v -1.426663 0.078518 -22.546635
v -1.365940 0.002820 -21.587948
v 1.365940 0.002820 -21.587948
v 0.455751 0.002820 -21.680822
v -1.624034 0.749464 -25.665710
v -1.569870 0.455779 -24.809715
v 1.669993 1.372911 -26.393435
v 1.426663 0.078518 -22.546635
v 1.569870 0.455779 -24.809715
v 1.504673 0.211780 -23.779367
v -1.669994 1.372911 -26.393435
v -1.653576 1.100730 -26.132738
v 1.624034 0.749464 -25.665710
v -0.455749 0.002820 -21.680822
v 1.640595 0.923897 -25.927446
v 1.598680 0.597443 -25.265020
v 1.538422 0.325996 -24.312712
v 1.391201 0.033287 -21.986649
v 1.465949 0.137168 -23.167383
v -1.663465 1.259945 -26.289579
v -1.598680 0.597443 -25.265017
v -1.465949 0.137168 -23.167383
v -1.640596 0.923897 -25.927443
v -1.538421 0.325996 -24.312712
v -1.391201 0.033287 -21.986649
v 1.663464 1.259945 -26.289585
v -0.911229 1.994148 -21.617498
v 1.003678 2.059684 -23.822176
v 0.000002 3.043271 -26.580755
v 0.000003 1.990595 -21.671940
v 0.000003 2.055414 -23.887615
v 0.000003 2.468476 -25.814888
v 1.083296 2.473083 -25.744282
v 0.000003 2.231447 -24.937098
v 0.000003 2.003149 -22.642056
v -1.003673 2.059684 -23.822180
v -1.083292 2.473083 -25.744280
v 1.114077 3.047597 -26.514458
v -1.114074 3.047598 -26.514452
v 0.911233 1.994148 -21.617498
v 0.000003 2.788447 -26.305908
v -1.103020 2.793092 -26.234722
v -1.047162 2.235903 -24.868816
v -0.951655 2.007161 -22.580566
v 1.103023 2.793092 -26.234728
v 1.047166 2.235903 -24.868816
v 0.951658 2.007161 -22.580566
v 1.653576 2.797405 -26.168636
v -0.557203 3.044638 -26.559805
v 1.066383 2.347543 -25.333529
v 0.557207 3.044638 -26.559809
v -1.504672 2.063586 -23.762375
v 1.094344 2.630057 -26.017509
v -1.426661 2.010880 -22.523581
v -1.365939 1.997770 -21.561998
v 0.928047 1.998546 -22.017988
v -0.551622 2.790083 -26.280840
v 0.000003 2.937145 -26.472263
v 1.365941 1.997770 -21.561998
v 1.109675 2.941681 -26.402750
v 0.455752 1.991722 -21.654676
v -1.624033 2.477296 -25.679724
v 0.475929 2.004563 -22.620386
v -1.569869 2.239974 -24.806423
v 0.551627 2.790083 -26.280840
v -1.066380 2.347543 -25.333529
v 0.977848 2.025180 -23.205122
v -0.501936 2.056924 -23.864475
v 0.000003 2.343006 -25.403049
v 1.669994 3.052032 -26.446503
v -0.928043 1.998546 -22.017988
v 1.426664 2.010880 -22.523581
v 1.569872 2.239974 -24.806423
v -1.109672 2.941681 -26.402748
v 0.000003 1.994740 -22.076305
v 1.504675 2.063586 -23.762375
v 0.000003 2.134474 -24.430079
v -0.475923 2.004563 -22.620386
v 0.000003 2.625406 -26.088783
v -1.094341 2.630057 -26.017509
v -0.523684 2.233023 -24.912947
v -1.669993 3.052032 -26.446503
v -1.653575 2.797405 -26.168636
v 0.523690 2.233023 -24.912947
v 0.000003 2.021023 -23.268829
v 0.541759 2.470105 -25.789923
v -1.026184 2.138840 -24.363167
v -0.541753 2.470105 -25.789921
v 0.501941 2.056924 -23.864475
v -0.977844 2.025180 -23.205122
v 1.624035 2.477296 -25.679724
v -0.455747 1.991722 -21.654676
v 1.026188 2.138840 -24.363167
v 1.640596 2.634315 -25.952263
v 1.598681 2.351689 -25.269985
v 1.538423 2.142830 -24.302023
v 0.513199 2.136019 -24.406410
v 1.391202 2.002210 -21.961836
v 1.465950 2.028984 -23.146830
v 0.464136 1.996050 -22.056232
v -1.663463 2.946068 -26.335512
v -1.598679 2.351689 -25.269983
v -1.465948 2.028984 -23.146830
v 0.554973 2.938703 -26.448387
v 0.533301 2.344611 -25.378462
v 0.489024 2.022493 -23.246304
v -0.554969 2.938703 -26.448387
v -0.547279 2.627050 -26.063587
v -1.640594 2.634315 -25.952261
v -0.533295 2.344611 -25.378462
v -0.513193 2.136019 -24.406410
v -1.538420 2.142830 -24.302023
v -0.489018 2.022493 -23.246304
v -0.464131 1.996050 -22.056232
v -1.391200 2.002210 -21.961836
v 1.663465 2.946068 -26.335518
v 0.547284 2.627050 -26.063587
v 1.197088 0.005063 -24.781563
v 0.798589 0.005063 -24.837181
v 0.399413 0.005063 -24.874437
v 0.000002 0.005063 -24.891739
v -0.399410 0.005063 -24.874437
v -0.798588 0.005063 -24.837181
v -1.197087 0.005063 -24.781563
v 1.197089 1.503520 -24.730154
v -1.197086 1.503520 -24.730154
v 0.798590 1.499898 -24.785654
v 0.399414 1.497472 -24.822830
v 0.000003 1.496345 -24.840094
v -0.399409 1.497472 -24.822830
v -0.798586 1.499898 -24.785654
vt 0.3479 0.3533
vt 0.5494 0.3751
vt 0.3554 0.4106
vt 0.9982 0.8072
vt 0.8264 0.7559
vt 0.9980 0.7559
vt 0.3422 0.2965
vt 0.5378 0.3183
vt 0.8265 0.6015
vt 0.9980 0.5501
vt 0.9978 0.6015
vt 0.7762 0.1237
vt 0.5747 0.1455
vt 0.5823 0.0882
vt 0.7646 0.1804
vt 0.5690 0.2023
vt 0.7547 0.2368
vt 0.5689 0.2528
vt 0.7957 0.0365
vt 0.5898 0.0367
vt 0.5954 0.0000
vt 0.3630 0.4621
vt 0.5689 0.4623
vt 0.3686 0.4988
vt 0.7510 0.2871
vt 0.5711 0.3002
vt 0.7875 0.0727
vt 0.5607 0.4261
vt 0.7498 0.3346
vt 0.5755 0.3442
vt 0.7510 0.3787
vt 0.5820 0.3834
vt 0.8262 0.5010
vt 0.6727 0.7917
vt 0.6218 0.4988
vt 0.7762 0.4687
vt 0.6197 0.4497
vt 0.6071 0.4325
vt 0.8264 0.5501
vt 0.9982 0.4988
vt 0.7875 0.4867
vt 0.6287 0.4613
vt 0.3487 0.1546
vt 0.5230 0.1641
vt 0.3443 0.1985
vt 0.3421 0.2460
vt 0.5279 0.2620
vt 0.3928 0.0490
vt 0.5494 0.0301
vt 0.3803 0.0663
vt 0.8265 0.7045
vt 0.9978 0.7045
vt 0.3552 0.1154
vt 0.5242 0.1200
vt 0.5242 0.2116
vt 0.4019 0.0374
vt 0.5607 0.0121
vt 0.0011 0.8895
vt 0.1539 0.8526
vt 0.1539 0.8895
vt 0.3670 0.0883
vt 0.5279 0.0805
vt 0.8465 0.0046
vt 1.0000 0.2953
vt 0.7957 0.2976
vt 0.5377 0.0528
vt 0.7547 0.4182
vt 0.5938 0.4105
vt 0.8266 0.6530
vt 0.9978 0.6530
vt 0.7645 0.4460
vt 0.1145 0.0309
vt 0.1710 0.0506
vt 0.1150 0.0529
vt 0.0000 0.0121
vt 0.0574 0.0176
vt 0.0007 0.0237
vt 0.2186 0.4275
vt 0.2685 0.3795
vt 0.2661 0.4310
vt 0.2211 0.3185
vt 0.2738 0.2654
vt 0.2712 0.3222
vt 0.2236 0.2110
vt 0.2783 0.1674
vt 0.2761 0.2149
vt 0.2256 0.1194
vt 0.2820 0.0842
vt 0.2802 0.1234
vt 0.2271 0.0529
vt 0.2840 0.0350
vt 0.2831 0.0571
vt 0.2279 0.0135
vt 0.2851 0.0060
vt 0.2847 0.0176
vt 0.1196 0.2616
vt 0.1710 0.3165
vt 0.1209 0.3185
vt 0.1155 0.0801
vt 0.1710 0.1171
vt 0.1164 0.1194
vt 0.1140 0.0019
vt 0.1710 0.0114
vt 0.1142 0.0135
vt 0.1223 0.3759
vt 0.1710 0.4257
vt 0.1235 0.4275
vt 0.0169 0.2708
vt 0.0709 0.3222
vt 0.0209 0.3275
vt 0.0249 0.3847
vt 0.0760 0.4310
vt 0.0286 0.4361
vt 0.1174 0.1634
vt 0.1710 0.2088
vt 0.1185 0.2110
vt 0.0103 0.1730
vt 0.0659 0.2149
vt 0.0135 0.2204
vt 0.0047 0.0900
vt 0.0618 0.1234
vt 0.0073 0.1292
vt 0.0017 0.0410
vt 0.0590 0.0571
vt 0.0030 0.0630
vt 0.0601 0.0842
vt 0.0638 0.1674
vt 0.0682 0.2654
vt 0.1710 0.2595
vt 0.0777 0.4676
vt 0.0311 0.4727
vt 0.0736 0.3795
vt 0.1244 0.4643
vt 0.1710 0.4627
vt 0.3421 0.0121
vt 0.3414 0.0237
vt 0.3404 0.0410
vt 0.3374 0.0900
vt 0.3348 0.1292
vt 0.3318 0.1730
vt 0.3251 0.2708
vt 0.3212 0.3275
vt 0.3171 0.3847
vt 0.0569 0.0060
vt 0.0581 0.0350
vt 0.1710 0.0286
vt 0.1710 0.1612
vt 0.1710 0.3739
vt 0.2281 0.0019
vt 0.2275 0.0309
vt 0.1710 0.0778
vt 0.2265 0.0801
vt 0.3390 0.0630
vt 0.2247 0.1634
vt 0.2224 0.2616
vt 0.3286 0.2204
vt 0.2198 0.3759
vt 0.2177 0.4643
vt 0.2644 0.4676
vt 0.3135 0.4361
vt 0.3109 0.4727
vt 0.1866 0.7704
vt 0.1399 0.7688
vt 0.1808 0.4742
vt 0.5229 0.5004
vt 0.5286 0.7921
vt 0.4820 0.7905
vt 0.8262 0.8072
vt 0.8262 0.7964
vt 0.8262 0.4988
vt 0.7957 0.4988
vt 0.5689 0.0000
vt 0.1539 0.9263
vt 0.1537 0.9632
vt 0.0009 0.9263
vt 0.1536 1.0000
vt 0.0000 1.0000
vt 0.0006 0.9632
vt 0.1537 0.8157
vt 0.0009 0.8526
vt 0.0000 0.7789
vt 0.1536 0.7789
vt 0.0006 0.8157
vt 1.0000 0.0000
vt 0.1710 0.0000
vt 0.0466 0.7738
vt 0.0000 0.7789
vt 0.0173 0.4828
vt 0.0932 0.7704
vt 0.0990 0.4742
vt 0.1399 0.4727
vt 0.2217 0.4777
vt 0.2625 0.4828
vt 0.2798 0.7789
vt 0.2332 0.7738
vt 0.0581 0.4777
vt 0.3886 0.7955
vt 0.3421 0.8005
vt 0.3594 0.5088
vt 0.4353 0.7921
vt 0.4410 0.5004
vt 0.4819 0.4988
vt 0.5637 0.5038
vt 0.6045 0.5088
vt 0.6218 0.8005
vt 0.5753 0.7955
vt 0.4002 0.5038
vn 0.9980 -0.0007 0.0631
vn 0.7033 0.7083 0.0600
vn 0.9980 -0.0008 0.0631
vn -0.8817 -0.0151 -0.4715
vn -0.0367 0.9080 -0.4174
vn -0.1015 -0.0314 -0.9943
vn 0.9980 -0.0006 0.0630
vn 0.7035 0.7067 0.0741
vn 0.0195 0.9080 -0.4185
vn 0.1015 -0.0314 -0.9943
vn 0.0595 -0.0315 -0.9977
vn -0.7033 0.7083 0.0600
vn -0.9980 -0.0007 0.0631
vn -0.9980 -0.0008 0.0631
vn -0.7035 0.7067 0.0741
vn -0.9980 -0.0006 0.0630
vn -0.7071 0.6978 0.1140
vn -0.9980 -0.0005 0.0630
vn -0.3023 0.2910 0.9077
vn 0.0542 0.9902 0.1282
vn 0.3023 0.2910 0.9077
vn -0.0542 0.9902 0.1282
vn -0.6975 0.6981 0.1615
vn -0.9980 -0.0002 0.0630
vn -0.7028 0.7093 0.0537
vn 0.7028 0.7093 0.0537
vn -0.6948 0.6928 0.1928
vn -0.9980 0.0000 0.0631
vn -0.6932 0.6833 0.2292
vn -0.9980 0.0003 0.0632
vn 0.6055 -0.5458 0.5792
vn -0.6722 0.5529 0.4924
vn -0.9979 0.0014 0.0642
vn -0.9980 0.0010 0.0638
vn 0.0367 0.9080 -0.4174
vn 0.8817 -0.0151 -0.4715
vn -0.6633 0.5305 0.5277
vn 0.9980 0.0000 0.0631
vn 0.6948 0.6928 0.1928
vn 0.9980 -0.0002 0.0630
vn 0.9980 -0.0005 0.0630
vn 0.7071 0.6978 0.1140
vn 0.9979 0.0014 0.0642
vn 0.6722 0.5529 0.4924
vn 0.9980 0.0010 0.0638
vn -0.0195 0.9080 -0.4185
vn -0.0595 -0.0315 -0.9977
vn 0.9980 0.0003 0.0632
vn 0.6932 0.6833 0.2292
vn 0.6975 0.6981 0.1615
vn 0.6634 0.5305 0.5277
vn 0.0000 -0.6541 0.7563
vn 0.0493 0.6889 0.7232
vn 0.0000 0.6847 0.7288
vn 0.9980 0.0006 0.0634
vn 0.7048 0.6348 0.3165
vn -0.6055 -0.5458 0.5792
vn 0.6825 0.5907 0.4304
vn -0.7048 0.6348 0.3165
vn -0.9980 0.0006 0.0634
vn 0.0000 0.9070 -0.4211
vn 0.0000 -0.0316 -0.9995
vn -0.6825 0.5907 0.4304
vn -0.0439 0.7741 0.6315
vn 0.0000 0.8345 0.5510
vn -0.0392 0.8347 0.5494
vn 0.5696 0.7729 -0.2795
vn -0.0736 0.7367 0.6722
vn 0.0049 0.9999 0.0128
vn 0.0088 0.9997 0.0218
vn 0.0079 0.9999 0.0128
vn 0.0070 0.9991 0.0421
vn 0.0168 0.9948 0.1002
vn 0.0109 0.9991 0.0420
vn 0.0150 0.9860 0.1662
vn 0.0279 0.9773 0.2102
vn 0.0234 0.9858 0.1659
vn 0.0212 0.9647 0.2624
vn 0.0465 0.9167 0.3967
vn 0.0331 0.9645 0.2619
vn 0.0392 0.8347 0.5494
vn 0.0694 0.7742 0.6291
vn 0.0614 0.8342 0.5480
vn 0.0455 0.7360 0.6754
vn 0.0736 0.7367 0.6722
vn -0.0108 0.9949 0.1004
vn 0.0000 0.9991 0.0424
vn -0.0070 0.9991 0.0421
vn -0.0298 0.9171 0.3975
vn 0.0000 0.9648 0.2631
vn -0.0212 0.9647 0.2624
vn 0.0000 0.7309 0.6824
vn -0.0455 0.7360 0.6754
vn -0.0056 0.9997 0.0218
vn 0.0000 0.9999 0.0126
vn -0.0049 0.9999 0.0128
vn -0.0109 0.9991 0.0420
vn -0.0079 0.9999 0.0128
vn -0.0179 0.9774 0.2105
vn 0.0000 0.9860 0.1667
vn -0.0150 0.9860 0.1662
vn -0.0234 0.9858 0.1659
vn -0.0331 0.9645 0.2619
vn -0.0614 0.8342 0.5480
vn -0.0465 0.9167 0.3967
vn -0.0279 0.9773 0.2102
vn -0.0168 0.9948 0.1002
vn 0.0000 0.9948 0.1012
vn -0.1018 0.0721 0.9922
vn -0.0088 0.9997 0.0218
vn -0.0622 0.0722 0.9954
vn 0.0000 0.0723 0.9974
vn -0.5696 0.7729 -0.2795
vn -0.0694 0.7742 0.6291
vn 0.0000 0.7731 0.6343
vn 0.0000 0.9775 0.2110
vn 0.0000 0.9998 0.0219
vn 0.0439 0.7741 0.6315
vn 0.0000 0.9167 0.3995
vn 0.0298 0.9171 0.3975
vn 0.0179 0.9774 0.2105
vn 0.0108 0.9949 0.1004
vn 0.0056 0.9997 0.0218
vn 0.0622 0.0721 0.9954
vn 0.1018 0.0721 0.9922
vn -0.0483 -0.6579 0.7515
vn 0.0000 1.0000 0.0007
vn 0.5950 0.5790 0.5574
vn -0.0493 0.6889 0.7232
vn -0.0837 0.6894 0.7195
vn -0.5950 0.5790 0.5574
vn -0.0820 -0.6583 0.7483
vn 0.0837 0.6894 0.7195
vn 0.0483 -0.6579 0.7515
vn 0.0820 -0.6583 0.7483
vn -0.0001 1.0000 0.0007
vn 0.0001 1.0000 0.0007
s 1
f 29/1/1 82/2/2 18/3/3
f 21/4/4 49/5/5 5/6/6
f 20/7/7 109/8/8 29/1/1
f 61/9/9 4/10/10 9/11/11
f 64/12/12 32/13/13 11/14/14
f 113/15/15 10/16/16 32/13/13
f 62/17/17 34/18/18 10/16/16
f 65/19/19 35/20/14 12/21/20
f 28/22/3 69/23/21 13/24/22
f 122/25/23 16/26/24 34/18/18
f 125/27/25 11/14/14 35/20/14
f 18/3/3 108/28/26 28/22/3
f 74/29/27 31/30/28 16/26/24
f 112/31/29 15/32/30 31/30/28
f 12/33/20 136/34/31 65/35/19
f 93/36/32 30/37/33 22/38/34
f 48/39/35 17/40/36 4/10/10
f 111/41/37 21/42/4 30/37/33
f 26/43/38 83/44/39 19/45/40
f 27/46/41 86/47/42 20/7/7
f 36/48/43 58/49/44 7/50/45
f 5/6/6 59/51/46 8/52/47
f 23/53/48 105/54/49 26/43/38
f 19/45/40 106/55/50 27/46/41
f 17/56/36 126/57/51 36/48/43
f 139/58/52 132/59/53 131/60/54
f 25/61/55 101/62/56 23/53/48
f 135/63/57 13/64/22 69/65/21
f 7/50/45 104/66/58 25/61/55
f 72/67/59 33/68/60 15/32/30
f 39/69/61 9/11/11 2/70/62
f 119/71/63 22/38/34 33/68/60
f 8/52/47 39/69/61 2/70/62
f 75/72/64 89/73/65 127/74/66
f 80/75/67 70/76/68 126/77/51
f 124/78/69 54/79/70 81/80/71
f 123/81/72 46/82/73 100/83/74
f 121/84/75 53/85/76 97/86/77
f 120/87/78 47/88/79 76/89/80
f 118/90/81 52/91/82 90/92/83
f 117/93/84 49/94/5 84/95/85
f 99/96/86 95/97/87 116/98/88
f 96/99/89 79/100/90 115/101/91
f 61/102/9 68/103/92 114/104/93
f 73/105/94 85/106/95 110/107/96
f 86/108/42 77/109/97 109/110/8
f 82/111/2 66/112/98 108/113/26
f 94/114/99 87/115/100 107/116/101
f 83/117/39 103/118/102 106/119/50
f 101/120/56 60/121/103 105/122/49
f 58/123/44 63/124/104 104/125/58
f 104/125/58 43/126/105 101/120/56
f 105/122/49 56/127/106 83/117/39
f 106/119/50 38/128/107 86/108/42
f 56/127/106 107/116/101 103/118/102
f 103/118/102 99/96/86 38/128/107
f 107/116/101 41/129/108 99/96/86
f 108/113/26 50/130/109 69/131/21
f 109/110/8 57/132/110 82/111/2
f 57/132/110 110/107/96 66/112/98
f 66/112/98 71/133/111 50/130/109
f 110/107/96 40/134/112 71/133/111
f 84/95/85 92/135/113 111/136/37
f 52/91/82 111/136/37 93/137/32
f 76/89/80 72/138/59 112/139/29
f 53/85/76 112/139/29 74/140/27
f 100/83/74 62/141/17 113/142/15
f 54/79/70 113/142/15 64/143/12
f 48/144/35 114/104/93 70/76/68
f 70/76/68 75/72/64 55/145/114
f 114/104/93 51/146/115 75/72/64
f 43/126/105 115/101/91 60/121/103
f 60/121/103 94/114/99 56/127/106
f 115/101/91 44/147/116 94/114/99
f 38/128/107 116/98/88 77/109/97
f 77/109/97 73/105/94 57/132/110
f 116/98/88 45/148/117 73/105/94
f 68/103/92 59/149/46 117/93/84
f 51/146/115 117/93/84 67/150/118
f 67/150/118 84/95/85 52/91/82
f 89/73/65 67/150/118 118/90/81
f 42/151/119 118/90/81 98/152/120
f 98/152/120 90/92/83 47/88/79
f 90/92/83 93/137/32 119/153/63
f 47/88/79 119/153/63 72/138/59
f 79/100/90 98/152/120 120/87/78
f 44/147/116 120/87/78 91/154/121
f 91/154/121 76/89/80 53/85/76
f 87/115/100 91/154/121 121/84/75
f 41/129/108 121/84/75 78/155/122
f 78/155/122 97/86/77 46/82/73
f 97/86/77 74/140/27 122/156/23
f 46/82/73 122/156/23 62/141/17
f 95/97/87 78/155/122 123/81/72
f 45/148/117 123/81/72 88/157/123
f 88/157/123 100/83/74 54/79/70
f 85/106/95 88/157/123 124/78/69
f 40/134/112 124/78/69 102/158/124
f 102/158/124 81/80/71 37/159/125
f 81/80/71 64/143/12 125/160/25
f 37/159/125 125/160/25 65/161/19
f 126/77/51 55/145/114 58/123/44
f 55/145/114 127/74/66 63/124/104
f 63/124/104 96/99/89 43/126/105
f 127/74/66 42/151/119 96/99/89
f 71/162/111 40/163/112 138/164/126
f 132/165/53 24/166/127 3/167/127
f 29/1/1 109/8/8 82/2/2
f 21/4/4 92/168/113 49/5/5
f 20/7/7 86/47/42 109/8/8
f 61/9/9 48/39/35 4/10/10
f 64/12/12 113/15/15 32/13/13
f 113/15/15 62/17/17 10/16/16
f 62/17/17 122/25/23 34/18/18
f 65/19/19 125/27/25 35/20/14
f 28/22/3 108/28/26 69/23/21
f 122/25/23 74/29/27 16/26/24
f 125/27/25 64/12/12 11/14/14
f 18/3/3 82/2/2 108/28/26
f 74/29/27 112/31/29 31/30/28
f 112/31/29 72/67/59 15/32/30
f 12/33/20 134/169/128 136/34/31
f 93/36/32 111/41/37 30/37/33
f 48/39/35 80/170/67 17/40/36
f 111/41/37 92/171/113 21/42/4
f 26/43/38 105/54/49 83/44/39
f 27/46/41 106/55/50 86/47/42
f 36/48/43 126/57/51 58/49/44
f 5/6/6 49/5/5 59/51/46
f 23/53/48 101/62/56 105/54/49
f 19/45/40 83/44/39 106/55/50
f 17/56/36 80/172/67 126/57/51
f 130/173/129 129/174/130 138/175/126
f 128/176/131 135/177/57 137/178/132
f 128/176/131 137/178/132 129/174/130
f 131/60/54 130/173/129 139/58/52
f 133/179/133 132/59/53 140/180/134
f 136/181/31 134/182/128 141/183/135
f 141/183/135 134/182/128 133/179/133
f 132/59/53 139/58/52 140/180/134
f 137/178/132 138/175/126 129/174/130
f 140/180/134 141/183/135 133/179/133
f 138/175/126 139/58/52 130/173/129
f 25/61/55 104/66/58 101/62/56
f 135/63/57 128/184/131 13/64/22
f 7/50/45 58/49/44 104/66/58
f 72/67/59 119/71/63 33/68/60
f 39/69/61 61/9/9 9/11/11
f 119/71/63 93/36/32 22/38/34
f 8/52/47 59/51/46 39/69/61
f 75/72/64 51/146/115 89/73/65
f 80/75/67 48/144/35 70/76/68
f 124/78/69 88/157/123 54/79/70
f 123/81/72 78/155/122 46/82/73
f 121/84/75 91/154/121 53/85/76
f 120/87/78 98/152/120 47/88/79
f 118/90/81 67/150/118 52/91/82
f 117/93/84 59/149/46 49/94/5
f 99/96/86 41/129/108 95/97/87
f 96/99/89 42/151/119 79/100/90
f 61/102/9 39/185/61 68/103/92
f 73/105/94 45/148/117 85/106/95
f 86/108/42 38/128/107 77/109/97
f 82/111/2 57/132/110 66/112/98
f 94/114/99 44/147/116 87/115/100
f 83/117/39 56/127/106 103/118/102
f 101/120/56 43/126/105 60/121/103
f 58/123/44 55/145/114 63/124/104
f 104/125/58 63/124/104 43/126/105
f 105/122/49 60/121/103 56/127/106
f 106/119/50 103/118/102 38/128/107
f 56/127/106 94/114/99 107/116/101
f 103/118/102 107/116/101 99/96/86
f 107/116/101 87/115/100 41/129/108
f 108/113/26 66/112/98 50/130/109
f 109/110/8 77/109/97 57/132/110
f 57/132/110 73/105/94 110/107/96
f 66/112/98 110/107/96 71/133/111
f 110/107/96 85/106/95 40/134/112
f 84/95/85 49/94/5 92/135/113
f 52/91/82 84/95/85 111/136/37
f 76/89/80 47/88/79 72/138/59
f 53/85/76 76/89/80 112/139/29
f 100/83/74 46/82/73 62/141/17
f 54/79/70 100/83/74 113/142/15
f 48/144/35 61/102/9 114/104/93
f 70/76/68 114/104/93 75/72/64
f 114/104/93 68/103/92 51/146/115
f 43/126/105 96/99/89 115/101/91
f 60/121/103 115/101/91 94/114/99
f 115/101/91 79/100/90 44/147/116
f 38/128/107 99/96/86 116/98/88
f 77/109/97 116/98/88 73/105/94
f 116/98/88 95/97/87 45/148/117
f 68/103/92 39/185/61 59/149/46
f 51/146/115 68/103/92 117/93/84
f 67/150/118 117/93/84 84/95/85
f 89/73/65 51/146/115 67/150/118
f 42/151/119 89/73/65 118/90/81
f 98/152/120 118/90/81 90/92/83
f 90/92/83 52/91/82 93/137/32
f 47/88/79 90/92/83 119/153/63
f 79/100/90 42/151/119 98/152/120
f 44/147/116 79/100/90 120/87/78
f 91/154/121 120/87/78 76/89/80
f 87/115/100 44/147/116 91/154/121
f 41/129/108 87/115/100 121/84/75
f 78/155/122 121/84/75 97/86/77
f 97/86/77 53/85/76 74/140/27
f 46/82/73 97/86/77 122/156/23
f 95/97/87 41/129/108 78/155/122
f 45/148/117 95/97/87 123/81/72
f 88/157/123 123/81/72 100/83/74
f 85/106/95 45/148/117 88/157/123
f 40/134/112 85/106/95 124/78/69
f 102/158/124 124/78/69 81/80/71
f 81/80/71 54/79/70 64/143/12
f 37/159/125 81/80/71 125/160/25
f 126/77/51 70/76/68 55/145/114
f 55/145/114 75/72/64 127/74/66
f 63/124/104 127/74/66 96/99/89
f 127/74/66 89/73/65 42/151/119
f 37/186/125 65/187/19 136/188/31
f 136/188/31 102/189/124 37/186/125
f 140/190/134 139/191/52 40/163/112
f 138/164/126 137/192/132 71/162/111
f 135/193/57 69/194/21 50/195/109
f 135/193/57 50/195/109 71/162/111
f 139/191/52 138/164/126 40/163/112
f 136/188/31 141/196/135 102/189/124
f 102/189/124 141/196/135 140/190/134
f 137/192/132 135/193/57 71/162/111
f 40/163/112 102/189/124 140/190/134
f 6/197/136 13/198/22 128/199/131
f 128/199/131 14/200/127 6/197/136
f 130/201/129 131/202/54 3/167/127
f 132/165/53 133/203/133 24/166/127
f 134/204/128 12/205/20 1/206/137
f 134/204/128 1/206/137 24/166/127
f 131/202/54 132/165/53 3/167/127
f 128/199/131 129/207/130 14/200/127
f 14/200/127 129/207/130 130/201/129
f 133/203/133 134/204/128 24/166/127
f 3/167/127 14/200/127 130/201/129
